# xmcd CD database file
# Copyright (C) 1997 Ti Kan
#
# Track frame offsets:
#  150
#  23100
#  44780
#  65617
#  82325
#  109250
#  130112
#  156585
#  185340
#  204592
#  227292
#  253555
#  274272
#  292847
#  308800
#  325575
#
# Disc length: 4600 seconds
#
# Revision: 1
# Processed by: cddbd v1.4b41PL1 Copyright (c) Steve Scherf et al.
# Submitted via: CDWizzard Release:4.32
#
DISCID=e711f610
DTITLE=R&B's Greatest Hits 1985 - 1995 - The Gold Seal Collection - Disk2
DTITLE=
DYEAR=1900
DGENRE=
TTITLE0=Good Enough
TTITLE1=If i Ever Fall in Love
TTITLE2=Gangsta
TTITLE3=Everythings Gonna Be Alright
TTITLE4=Where Are You Now
TTITLE5=Baby I'm Yours
TTITLE6=Lately
TTITLE7=I Miss You
TTITLE8=Never Lie
TTITLE9=Old School Lovin'
TTITLE10=Be Happy
TTITLE11=Candy Rain
TTITLE12=Groove Of Love
TTITLE13=This is Your Night
TTITLE14=I'm Goin' Down
TTITLE15=Freen 'N' You
EXTD=
EXTT0=Bobby Brown
EXTT1=Shai
EXTT2=Bell Biv Devoe
EXTT3=Father MC
EXTT4=Christopher Williams
EXTT5=Shai
EXTT6=Jodeci
EXTT7=Aaron Hall
EXTT8=Immature
EXTT9=Chante Moore
EXTT10=Mary J Blige
EXTT11=Soul for Real
EXTT12=Ebony Vibe Everlasting
EXTT13=Heavy D and The Boyz
EXTT14=Mary J Blige
EXTT15=Jodeci
PLAYORDER=
